/* XPM */
static char *firstpage[]={
"16 15 37 1",
". c None",
"# c #024266",
"G c #034367",
"I c #1b5f8e",
"H c #266995",
"E c #30739c",
"F c #34769f",
"B c #3b7da3",
"D c #3f7fa6",
"C c #4181a7",
"y c #4586aa",
"z c #4c8cad",
"A c #4f8eb2",
"v c #4f90b1",
"x c #5998b9",
"s c #5999b8",
"w c #5a97b5",
"r c #5a9ab8",
"u c #63a2c0",
"o c #64a4bf",
"t c #6aa5be",
"q c #6eabc7",
"k c #6eadc6",
"j c #6faec6",
"l c #6faec7",
"n c #79b5ce",
"g c #79b7cd",
"f c #7cb9ce",
"p c #7db4c8",
"c c #83c1d4",
"i c #87c0d5",
"b c #8ecadc",
"m c #93c6d6",
"e c #94ccdc",
"h c #a1d2e0",
"d c #a9d9e5",
"a c #aedde9",
"............##..",
"...........#aa#.",
".###......#aba#.",
"#aaa#....#accd#.",
"#eff#...#agggh#.",
"#ijj#..#akkklm#.",
"#noo#.#aooooop#.",
"#qrr#.#rrrrrst#.",
"#uvv#.#vvvvvvw#.",
"#xyy#..#yyyyyz#.",
"#ABB#...#BBBBC#.",
"#DEE#....#EEEF#.",
".G##......#HHH#.",
"...........#II#.",
"............##.."};
