/* XPM */
static char *firstpage_xpm[]={
"16 15 51 1",
". c None",
"# c None",
"V c None",
"T c None",
"Q c None",
"M c None",
"I c None",
"E c None",
"z c None",
"v c None",
"p c None",
"k c None",
"f c None",
"d c None",
"b c None",
"a c #024266",
"S c #034367",
"W c #1b5f8e",
"U c #266995",
"P c #30739c",
"R c #34769f",
"L c #3b7da3",
"O c #3f7fa6",
"N c #4181a7",
"H c #4586aa",
"J c #4c8cad",
"K c #4f8eb2",
"D c #4f90b1",
"G c #5998b9",
"A c #5999b8",
"F c #5a97b5",
"y c #5a9ab8",
"C c #63a2c0",
"u c #64a4bf",
"B c #6aa5be",
"x c #6eabc7",
"q c #6eadc6",
"o c #6faec6",
"r c #6faec7",
"t c #79b5ce",
"l c #79b7cd",
"j c #7cb9ce",
"w c #7db4c8",
"g c #83c1d4",
"n c #87c0d5",
"e c #8ecadc",
"s c #93c6d6",
"i c #94ccdc",
"m c #a1d2e0",
"h c #a9d9e5",
"c c #aedde9",
"........##..aa..",
".......#bb#acca.",
".aaa..#bdbaceca.",
"accca#bffacggha.",
"aijjabkkaclllma.",
"anooappacqqqrsa.",
"atuuavacuuuuuwa.",
"axyyazayyyyyABa.",
"aCDDaEaDDDDDDFa.",
"aGHHaIIaHHHHHJa.",
"aKLLaMMMaLLLLNa.",
"aOPPa#QQQaPPPRa.",
".Saa..#TTTaUUUa.",
".......#VV#aWWa.",
"........##..aa.."};
