/* XPM */
static char *lastpage_xpm[]={
"16 15 52 1",
". c None",
"a c None",
"X c None",
"W c None",
"T c None",
"Q c None",
"M c None",
"I c None",
"E c None",
"A c None",
"v c None",
"q c None",
"k c None",
"h c None",
"e c None",
"c c None",
"# c #024266",
"U c #034367",
"V c #1b5f8e",
"S c #266995",
"P c #30739c",
"O c #34769f",
"L c #3b7da3",
"R c #3f7fa6",
"K c #4181a7",
"H c #4586aa",
"G c #4c8cad",
"N c #4f8eb2",
"D c #4f90b1",
"J c #5998b9",
"y c #5999b8",
"C c #5a97b5",
"z c #5a9ab8",
"F c #63a2c0",
"u c #64a4bf",
"x c #6aa5be",
"B c #6eabc7",
"p c #6eadc6",
"s c #6faec6",
"o c #6faec7",
"w c #79b5ce",
"j c #79b7cd",
"m c #7cb9ce",
"t c #7db4c8",
"g c #83c1d4",
"r c #87c0d5",
"d c #8ecadc",
"n c #93c6d6",
"l c #94ccdc",
"i c #a1d2e0",
"f c #a9d9e5",
"b c #aedde9",
"..##.aa.........",
".#bb#cca....aaa.",
".#bdb#eca..a###a",
".#fggb#hca.#bbb#",
".#ijjjb#kca#lmm#",
".#nopppb#qc#rss#",
".#tuuuuub#v#wuu#",
".#xyzzzzz#A#Bzz#",
".#CDDDDDD#E#FDD#",
".#GHHHHH#II#JHH#",
".#KLLLL#MMa#NLL#",
".#OPPP#QQa.#RPP#",
".#SSS#TTa..aU##a",
".#VV#WWa....Xaa.",
"..##.aa........."};
