/* XPM */
static char *lastpage_xpm[]={
"16 15 37 1",
". c None",
"# c #024266",
"H c #034367",
"I c #1b5f8e",
"G c #266995",
"E c #30739c",
"D c #34769f",
"B c #3b7da3",
"F c #3f7fa6",
"A c #4181a7",
"y c #4586aa",
"x c #4c8cad",
"C c #4f8eb2",
"v c #4f90b1",
"z c #5998b9",
"r c #5999b8",
"u c #5a97b5",
"s c #5a9ab8",
"w c #63a2c0",
"o c #64a4bf",
"q c #6aa5be",
"t c #6eabc7",
"k c #6eadc6",
"m c #6faec6",
"j c #6faec7",
"p c #79b5ce",
"f c #79b7cd",
"h c #7cb9ce",
"n c #7db4c8",
"d c #83c1d4",
"l c #87c0d5",
"b c #8ecadc",
"i c #93c6d6",
"g c #94ccdc",
"e c #a1d2e0",
"c c #a9d9e5",
"a c #aedde9",
"..##............",
".#aa#...........",
".#aba#......###.",
".#cdda#....#aaa#",
".#efffa#...#ghh#",
".#ijkkka#..#lmm#",
".#noooooa#.#poo#",
".#qrsssss#.#tss#",
".#uvvvvvv#.#wvv#",
".#xyyyyy#..#zyy#",
".#ABBBB#...#CBB#",
".#DEEE#....#FEE#",
".#GGG#......H##.",
".#II#...........",
"..##............"};
