/* XPM */
static char *nextpage_xpm[]={
"16 15 21 1",
". c None",
"# c #024266",
"s c #266995",
"r c #30739c",
"q c #30739d",
"p c #3b7da3",
"o c #3c7da4",
"n c #4586aa",
"m c #4a88aa",
"l c #4f90b1",
"k c #5994b1",
"j c #5a9ab8",
"h c #64a4bf",
"i c #6ba2ba",
"f c #6eadc6",
"d c #79b7cd",
"g c #7fb3c7",
"b c #83c1d4",
"e c #94c5d5",
"c c #a5d5e2",
"a c #aedde9",
"................",
"..##.....##.....",
".#aa#...#aa#....",
".#aba#..#aba#...",
".#cdda#.#cdda#..",
".#efffa##efffa#.",
".#ghhhha#ghhhha#",
".#ijjjjj#ijjjjj#",
".#klllll#klllll#",
".#mnnnn##mnnnn#.",
".#oppp#.#oppp#..",
".#qrr#..#qrr#...",
".#ss#...#ss#....",
"..##.....##.....",
"................"};
