/* XPM */
static char *prevpage_xpm[]={
"16 15 21 1",
". c None",
"# c #024266",
"s c #266995",
"q c #30739c",
"r c #30739d",
"o c #3b7da3",
"p c #3c7da4",
"m c #4586aa",
"n c #4a88aa",
"k c #4f90b1",
"l c #5994b1",
"i c #5a9ab8",
"g c #64a4bf",
"j c #6ba2ba",
"e c #6eadc6",
"c c #79b7cd",
"h c #7fb3c7",
"b c #83c1d4",
"f c #94c5d5",
"d c #a5d5e2",
"a c #aedde9",
"................",
".....##.....##..",
"....#aa#...#aa#.",
"...#aba#..#aba#.",
"..#accd#.#accd#.",
".#aeeef##aeeef#.",
"#aggggh#aggggh#.",
"#iiiiij#iiiiij#.",
"#kkkkkl#kkkkkl#.",
".#mmmmn##mmmmn#.",
"..#ooop#.#ooop#.",
"...#qqr#..#qqr#.",
"....#ss#...#ss#.",
".....##.....##..",
"................"};
