/* XPM */
static char *prev_xpm[]={
"16 15 26 1",
". c None",
"# c #024266",
"x c #1b5f8e",
"w c #266995",
"u c #30739c",
"v c #34769f",
"s c #3b7da3",
"t c #4181a7",
"q c #4586aa",
"r c #4c8cad",
"o c #4f90b1",
"m c #5999b8",
"p c #5a97b5",
"l c #5a9ab8",
"j c #64a4bf",
"n c #6aa5be",
"g c #6eadc6",
"h c #6faec7",
"e c #79b7cd",
"k c #7db4c8",
"c c #83c1d4",
"b c #8ecadc",
"i c #93c6d6",
"f c #a1d2e0",
"d c #a9d9e5",
"a c #aedde9",
"........##......",
".......#aa#.....",
"......#aba#.....",
".....#accd#.....",
"....#aeeef#.....",
"...#aggghi#.....",
"..#ajjjjjk#.....",
"..#lllllmn#.....",
"..#oooooop#.....",
"...#qqqqqr#.....",
"....#sssst#.....",
".....#uuuv#.....",
"......#www#.....",
".......#xx#.....",
"........##......"};
