/* XPM */
static char * comical_xpm[] = {
"64 64 239 2",
"  	c None",
". 	c #FFFF00",
"+ 	c #000000",
"@ 	c #3C3C00",
"# 	c #030300",
"$ 	c #8C8C00",
"% 	c #505000",
"& 	c #1C1C00",
"* 	c #BDBD00",
"= 	c #494900",
"- 	c #020200",
"; 	c #969600",
"> 	c #444400",
", 	c #C3C300",
"' 	c #6B6B00",
") 	c #717100",
"! 	c #E7E700",
"~ 	c #A4A400",
"{ 	c #0D0D00",
"] 	c #CBCB00",
"^ 	c #848400",
"/ 	c #ABAB00",
"( 	c #C6C600",
"_ 	c #E0E000",
": 	c #303000",
"< 	c #CECE00",
"[ 	c #D8D800",
"} 	c #9D9D00",
"| 	c #1A1A00",
"1 	c #121200",
"2 	c #F9F900",
"3 	c #FAFA00",
"4 	c #C8C800",
"5 	c #949400",
"6 	c #7A7A00",
"7 	c #F1F100",
"8 	c #DEDE00",
"9 	c #CACA00",
"0 	c #F8F800",
"a 	c #F6F600",
"b 	c #EBEB00",
"c 	c #C7C700",
"d 	c #DFDF00",
"e 	c #C4C400",
"f 	c #ADAD00",
"g 	c #474700",
"h 	c #141400",
"i 	c #878755",
"j 	c #818159",
"k 	c #52527B",
"l 	c #E3E314",
"m 	c #C7C728",
"n 	c #959528",
"o 	c #0000B7",
"p 	c #6E6E28",
"q 	c #7B7B00",
"r 	c #161600",
"s 	c #21219F",
"t 	c #A8A83D",
"u 	c #55557A",
"v 	c #FCFC00",
"w 	c #F0F000",
"x 	c #E5E500",
"y 	c #D9D900",
"z 	c #49493D",
"A 	c #222200",
"B 	c #040400",
"C 	c #2E2E95",
"D 	c #0808B0",
"E 	c #1010AA",
"F 	c #A7A73E",
"G 	c #DDDD00",
"H 	c #BABA00",
"I 	c #A9A900",
"J 	c #8E8E00",
"K 	c #16163D",
"L 	c #7C7C5D",
"M 	c #D8D81B",
"N 	c #484882",
"O 	c #E2E214",
"P 	c #6C6C00",
"Q 	c #2C2C00",
"R 	c #2A2A00",
"S 	c #01013D",
"T 	c #1313A8",
"U 	c #C1C100",
"V 	c #AAAA3D",
"W 	c #727265",
"X 	c #8E8E51",
"Y 	c #45457A",
"Z 	c #7D7D3D",
"` 	c #808000",
" .	c #34343D",
"..	c #787800",
"+.	c #CFCF00",
"@.	c #E1E100",
"#.	c #1D1DA2",
"$.	c #39398E",
"%.	c #D0D000",
"&.	c #76763D",
"*.	c #0202B5",
"=.	c #8A8A00",
"-.	c #A5A53D",
";.	c #CCCC00",
">.	c #323292",
",.	c #FDFD00",
"'.	c #95953D",
").	c #464600",
"!.	c #2D2D00",
"~.	c #131300",
"{.	c #96964B",
"].	c #9B9B47",
"^.	c #A9A93D",
"/.	c #90903D",
"(.	c #62623D",
"_.	c #0B0B00",
":.	c #F3F300",
"<.	c #57573D",
"[.	c #54543D",
"}.	c #595900",
"|.	c #29293D",
"1.	c #1B1BA2",
"2.	c #D2D214",
"3.	c #AAAA28",
"4.	c #1919A2",
"5.	c #ECEC00",
"6.	c #373714",
"7.	c #2B2B65",
"8.	c #10103D",
"9.	c #9C9C3D",
"0.	c #1414A2",
"a.	c #33337A",
"b.	c #1C1C8E",
"c.	c #515100",
"d.	c #45453D",
"e.	c #585800",
"f.	c #393900",
"g.	c #22223D",
"h.	c #0505A2",
"i.	c #0303A2",
"j.	c #111165",
"k.	c #989814",
"l.	c #848451",
"m.	c #1818A2",
"n.	c #787828",
"o.	c #6D6D28",
"p.	c #555500",
"q.	c #343400",
"r.	c #111100",
"s.	c #404000",
"t.	c #999900",
"u.	c #7C7C00",
"v.	c #696900",
"w.	c #575700",
"x.	c #4A4A00",
"y.	c #3D3D00",
"z.	c #9F9F00",
"A.	c #B5B500",
"B.	c #6E6E00",
"C.	c #272700",
"D.	c #0A0A00",
"E.	c #FBFB00",
"F.	c #767600",
"G.	c #4F4F00",
"H.	c #323200",
"I.	c #070700",
"J.	c #C9C900",
"K.	c #909000",
"L.	c #FEFE00",
"M.	c #E3E300",
"N.	c #282800",
"O.	c #616100",
"P.	c #888800",
"Q.	c #797900",
"R.	c #B1B100",
"S.	c #E8E800",
"T.	c #D4D400",
"U.	c #BCBC00",
"V.	c #B3B300",
"W.	c #A1A100",
"X.	c #8F8F00",
"Y.	c #868600",
"Z.	c #181800",
"`.	c #090900",
" +	c #656500",
".+	c #9C9C00",
"++	c #DADA00",
"@+	c #D2D200",
"#+	c #9E9E00",
"$+	c #686800",
"%+	c #4E4E00",
"&+	c #363600",
"*+	c #010100",
"=+	c #919100",
"-+	c #9A9A00",
";+	c #676700",
">+	c #878700",
",+	c #EEEE00",
"'+	c #0F0F00",
")+	c #060600",
"!+	c #9B9B00",
"~+	c #7F7F00",
"{+	c #AEAE00",
"]+	c #252500",
"^+	c #424200",
"/+	c #525200",
"(+	c #E6E600",
"_+	c #C2C200",
":+	c #D3D300",
"<+	c #151500",
"[+	c #F7F700",
"}+	c #C0C000",
"|+	c #E4E400",
"1+	c #CDCD00",
"2+	c #2F2F00",
"3+	c #828200",
"4+	c #5D5D00",
"5+	c #DCDC00",
"6+	c #535300",
"7+	c #3B3B00",
"8+	c #454500",
"9+	c #EAEA00",
"0+	c #191900",
"a+	c #E2E200",
"b+	c #202000",
"c+	c #818100",
"d+	c #0E0E00",
"e+	c #333300",
"f+	c #212100",
"g+	c #A7A700",
"h+	c #080800",
"i+	c #0C0C00",
"j+	c #2E2E00",
"k+	c #F5F500",
"l+	c #6F6F00",
"m+	c #D1D100",
"n+	c #B0B000",
"o+	c #414100",
"p+	c #8B8B00",
"                                                                                                                                ",
"                                                                                                                                ",
"                                                                                                                                ",
"                                                                                                                                ",
"                                                                                                                                ",
"                                                                                                                                ",
"                                                                                                        .                       ",
"                                                                                                      .                         ",
"                                                                                                    .                           ",
"                                                            .                                     . .                           ",
"                                                            .                                   . .         +                   ",
"                                                          . .     +                           . .       + +                     ",
"                                                          . .     +                 .         . .     + +                       ",
"                                                          . .     +   .             .     . . . .     + +                       ",
"                                              .           . . . @ # $ .         . . .     . . .     + +                         ",
"                                              . .         . . . % & * .       . . .     . . . . = - + +                         ",
"                              . .             . . . ; > , . . . ' ) ! . .   . . . .     . . . ~ { + + +                         ",
"                              . . . .         . . . ] ^ * . . . / ( . . . . . . . . . . . . _ : + + +                           ",
"                              . . . . . . .   . . . . < [ . . . . . . . . . . . . . . . . . } | 1 + +                           ",
"                                . . . . . . . . . . . 2 3 . . . . . . . . . . . . . . . . . 4 5 6 +                             ",
"                                . . . . . . . . . . . . . . . . . . . . . . . . . . . . . . 7 8 9                   . . . . . . ",
"              . .               . . . . . . . . . . . . . . . . . . . . . . . . . . . . . . . . 0         . . . . . . . . a b c ",
"            . . . . .           . . . . . . . . . . . . . . . . . . . . . . . . . . . . . . . . . . . . . . . . . . . d [ e f   ",
"                . . . . . .     . . . . . . . . . . . . . . . . . . . . . . . . . . . . . . . . . . . . . . . . . . . g | h 1 + ",
"                  i j k . . . . . . . . . . . . . . . . . . . . . . l m . . . . . . . . . . . . . . . . . . . n o p q r - + + + ",
"              s o o o o t . . . . . . . . . . . . . . . . . . . . . u o . . . . . . . . . . . . . . . v w x y z o o A B + + +   ",
"            C o D   E o F . . . . . . . . . . . . . . . . . . . . . l m . . . . . . . . . . . . . . . G H I J K o o   + + +     ",
"        . L o k . . M N O . . . . . . . . . . . . . . . . . . . . . . . . . . . . . . . . . . . . . . P Q > R S o o             ",
"          o T U x . . . . . . V u u m . . . W X . X u l l W u l . . V W . . . . . X u X l . . . . V u Y Z e `  .o o             ",
"        o o   ..+.] @.. . . u o o o o m . . o u u o o #.o o o #.. . u o . . . . u o o o o m . l $.o o o o W %.&.o o             ",
"        o *.      =.e . . X o u . m o u . . o #.o V u o u l #.o . . u o . . . X o u . l W l . u o u l V o V . -.o o ;.] ,       ",
"        o >.    ,.* G . . #.#.. . . $.o . . o o V . u o . . u o V . u o . . . #.#.. . . . . l o $.. . V o V . '.o o ).!.~.      ",
"      {.o ].. . . w a . . o u . . . u o . . o u . . u o . . X o V . u o . . V o X . . . . . V o V . . ^.o /.e (.o o 1 _.# + + + ",
"    . ^.o X . . . . l m . o u . . . u o . . o u . . u o . . V o V . u o . . V o V . . . . . V o V . :.<.o [.}.|.o o + + +       ",
". . . . o 1.2.! _ 3.4.o . $.o l . l o u . l o W . . V o V . V o W . u o . . m o u . . l W l m o W . 5.6.o 7.h 8.o o             ",
". . . . 9.o 0.a.b.o o V . V o #.u o o l . l o W . . V o V . l o u . u o . . . u o #.u #.o m . #.o $.u o o #.c.d.o o             ",
". +.e.> f.g.h.o i.j.k.. . . V #.o $.m . . . #.W . . V o V . . #.W . V W . . . . W #.o $.m . . l u o o u l.m.n.o.o o             ",
"p.q.r.B + + + - s.e.8 . . . . . . . . . . . . . . . . V . . . . . . . . . . . . . . . . . . . . . . . t.u.v.w.x.y.              ",
"+ + + + + + + : z.A.. . . . . . . . . . . . . . . . . . . . . . . . . . . . . . . . . . . . . . . . . B.p.C.h D.+ + + +         ",
"                . . . . . . . . . . . . . . . . . . . . . . . . . . . . . . . . . . . . . . ,.E.3 ,.. E.. F.G.H.I.              ",
"              . . . . . . . . . . . . . . . . . . . . . . . . . . . . . . . . . . . . . . . J.K.u.U . L.2 @.[ <                 ",
"            . . . . . . . . 7 M.7 . . . . . . . . . . . . . . . . . . . . . . . . . . . . . t.q.N.O.P.Q.R.! [ G . .             ",
"          . . . S.T.] e U.V.W.X.;.. . . . . . . . . . . . . . . . . . . . . . . . . . . . . Y.+ + Z.A `. +.+$ / ++;.@+.         ",
"        . . . E.#+$+%+&+& # + *+=+. . . . . . . . . . . . . . . . . . . . . . v :.a . ,.,.. -++ + +       + + = ` ;+>+:.7 ,+    ",
"                A h '+_.)+*++ h !+. . . . . . . . . . . . . . . . . . . . . . < e.~+,.! d . {++ + +             N.]+g }.^+/+(+_+",
"                + + + + +     Q.:+. . . . . . ,.. . . . . . . . . ,.(+@.. . . e <+!.P ;+` %.=++ + +                   R     $+p.",
"                              . .     . . . ,+H . . . . [+J.}+e . b J =+|+. . 1++ # + + 2+3+4++ + +                         + + ",
"                              .       . . ,.U.q.. . . L.5+6+7+8+9+H + 0+z.. . a+r.+ +     + +   + +                             ",
"                            .       . . . b H.b+. . . [+c+d+D.d+e+f++ B f+. . 0 g++ +                                           ",
"                                    . . . S.h+i+. . . U.j++ + *+      + #   . L.S.d++                                           ",
"                                  s.E.. .   + *+k+. . $+- + + +             . . . A +                                           ",
"                                  l+a .   )++ + a+. . r.+ + +                 . . &++ +                                         ",
"                                  S.L..   *++ + m+.   # + + +                   . x.+ +                                         ",
"                                  . .     + + + !     + + +                     . n+o++                                         ",
"                                  .     + + +         + +                         w p++ +                                       ",
"                                . .     + +           + +                               +                                       ",
"                                        + +                                             + +                                     ",
"                                        +                                                 +                                     ",
"                                        +                                                                                       ",
"                                                                                                                                ",
"                                                                                                                                ",
"                                                                                                                                ",
"                                                                                                                                ",
"                                                                                                                                "};
