/* XPM */
static char * Comical_xpm[] = {
"128 128 79 1",
" 	g None",
".	g #101010",
"+	g #181818",
"@	g #212121",
"#	g #292929",
"$	g #313131",
"%	g #393939",
"&	g #080808",
"*	g #4A4A4A",
"=	g #757575",
"-	g #949494",
";	g #AFAFAF",
">	g #CECECE",
",	g #DEDEDE",
"'	g #EFEFEF",
")	g #F7F7F7",
"!	g #FFFFFF",
"~	g #E7E7E7",
"{	g #E0E0E0",
"]	g #D6D6D6",
"^	g #C6C6C6",
"/	g #B5B5B5",
"(	g #9C9C9C",
"_	g #848484",
":	g #5A5A5A",
"<	g #7B7B7B",
"[	g #A5A5A5",
"}	g #E9E9E9",
"|	g #F9F9F9",
"1	g #ADADAD",
"2	g #525252",
"3	g #C8C8C8",
"4	g #969696",
"5	g #737373",
"6	g #8C8C8C",
"7	g #6B6B6B",
"8	g #B7B7B7",
"9	g #D8D8D8",
"0	g #5C5C5C",
"a	g #424242",
"b	g #F1F1F1",
"c	g #444444",
"d	g #636363",
"e	g #8E8E8E",
"f	g #D0D0D0",
"g	g #868686",
"h	g #2B2B2B",
"i	g #020202",
"j	g #000000",
"k	g #6D6D6D",
"l	g #7D7D7D",
"m	g #656565",
"n	g #4C4C4C",
"o	g #040404",
"p	g #9E9E9E",
"q	g #BFBFBF",
"r	g #1A1A1A",
"s	g #A7A7A7",
"t	g #3B3B3B",
"u	g #0A0A0A",
"v	g #333333",
"w	g #1D1D1D",
"x	g #232323",
"y	g #5F5F5F",
"z	g #121212",
"A	g #151515",
"B	g #0C0C0C",
"C	g #BDBDBD",
"D	g #545454",
"E	g #4E4E4E",
"F	g #2D2D2D",
"G	g #252525",
"H	g #E4E4E4",
"I	g #575757",
"J	g #DBDBDB",
"K	g #D3D3D3",
"L	g #999999",
"M	g #C3C3C3",
"N	g #E3E3E3",
"                                                                                                                                ",
"                                                                                                                                ",
"                                                                                                                                ",
"                                                                                                                                ",
"                                                                                                                                ",
"                                                                                                                                ",
"                                                                                                                                ",
"                                                                                                                                ",
"                                                                                                                                ",
"                                                                                                                                ",
"                                                                                                                                ",
"                                                                                                                                ",
"                                                                                                                                ",
"                                                                                                                                ",
"                                                                                                                                ",
"                                                                                                                                ",
"                                                                                                                                ",
"                                                                                                                                ",
"                                                                                                                                ",
"                                                                                                                                ",
"                                                                                                                                ",
"                                                           .+@#$$$$%%##@+.&&                                                    ",
"                                                  &.#*=-;>,,''))!!!!!!))~{]^/(_:#+&                                             ",
"                                             &@*<[>})!!!!!!!!!!!!!!!!!!!!!!!!!!!|~>1_*+                                         ",
"                                          @2->)!!!!!!!!!)!!!!!!!!!!!!)!!)!!!!!!!!!!!!!'342@                                     ",
"                                      &%_^~!!!!!)!!|!!|!|!|)!|!!)!!|!!|!|!|)!|!!)!!|!!!!!!~/5#&                                 ",
"                                    %6])!!!!!|!)!!!!!!!!!!!!!!!)!!!!!!!!!!!!!!!)!!!!!!!!!!!!!)>5#                               ",
"                                 .78)!!!!)!!)!!!!|!)!)!!!)!!)!!!!|!)!)!!!)!!)!!!!|!)!)!!!)!!)!!!)/:&                            ",
"                               #_]!!!!!!))!!|!)!!!!!!!!!|!!!!!|!!!!!!!!!|!!!!!|!!!!!!!!!|!!!!!|!!!!]<+                          ",
"                             #-~!!!!))))!!|)!!!|)!!!))!)!!!)!!!!)!!!|)!)!!!)!!!!)!!!|)!)!!!)!!!!)!!!!,6@                        ",
"                           @-~!!)!)!||!!!)!)!|!!)!)!!!!!!!!!!!!!|!)!!!!!!!!!!!!!|!)!!!!!!!!!!!!!|!)!!!!~_.                      ",
"                         +<~!!))))))!))))!)|)!))!!!)!)|)|!)!|!!)!!!|!|!|!!)!|!!)!!!|!|!|!!)!|!!)!!!|!|!!!90                     ",
"                       .2]!!|)))|))))|)!)|))!)|!!!)!|!!!!!)!!)!!!!)!!!!!!!|!!)!!!!)!!!!!!!|!!)!!!!)!!!!!!!!/#                   ",
"                      +()!|))))))))!))))))!))|))!)|!!))!)!!!)!!!!!!!!!)!)!!!|!!!!!!!!!)!)!!!|!!!!!!!!!)!)!!!)5                  ",
"                     a>!|!)))))b))))b))))!)|)!|))!)))!|!!!!!|!!)|!!|)!!!!!!!!!!)|!!|)!!!!!!!!!!)|!!|)!!!!!!!!!1                 ",
"                   .7~!)'))')))!)))))))))))))))!)|!)!))!)!|)!)!!!!!!!!|!|!!)!|!!!!!!!!|!|!!)!|!!!!!!!!|!|!!)!!!,#               ",
"                   -)|))b)))))'))'))'))))))))))))))!)|!|)!!!!!)!!)!!)!!!!!!!!!)!!)!!)!!!!!!!!!)!!)!!)!!!!!!!!!)!'c              ",
"                 +[!)')')''))'))')'))')'))'))))))|))!)!)!)))!)!!|!)!!|!)!!)!!|!!!!|!!|!)!!)!!|!!!!|!!|!)!!)!!|!!!!d             ",
"                @;!b'|'b''b')'b')b)''!b)'))))))b)))))!)!)|!)!|!)!!!)!!!!|!!!!!!|!!!|!!!!|!!!!!!|!!!|!!!!|!!!!!!|!!!7            ",
"               @1!b''b'''b'''')'''''')'b')')'b))'))))|)))!)!))!!)|!)!!!!!!|!)!!!)!!)!!!!!!|!)!!!)!!)!!!!!!|!)!!!)!!)7           ",
"              +1!bb'''''}''''')b''b'''')'')'b))))))))))|))!)|!!!|!!!!)!!)!!!!!!!!!!!!)!!)!!!!!!!!!!!!)!!)!!!!!!!!!!!|2          ",
"             +-!'''}''''}''~'}''''''')'|!!!))'))')b'))))))))!))!)!))!!|!|!|)!|!!)!!|!!|!|!|)!|!!)!!|!!|!!!|)!|!!)!!|!'#         ",
"             7)'')''''''!))!)}'~')'''!';-e4,!')''))))))))))!))!))!!!!!!!!!!!!!!)!!!!!!!!!!!!!!!)!!!!!!!!!!!!!!!)!!!!!!f         ",
"            %])''~'~''!](77g>)'''~'''ehijjj+e)'b)')'))!!!!!))!!!!!|{b)!!!!!!!b|!!|!!!^-kl1!!)!!!!!!)'>;_mf!!!!!!!'!)!|!_        ",
"           @[!}''~~~){=+jjjj.e'''~',njiiiioijp))'')!!',q-74!)}>1l:hrf!!!~^(=an)!!!!^*ijjjjc,!!!9sl0truiji,!!'>(=cc)!!!!)#       ",
"           2')'~~'~)3vjjiuiiij()~),tjiiiouiijw~'')^k*xuijjm!_+uijjjr,!!)vijjjy!!|!4ujiiioojv'!~zjjjijiijh!!)tjijj0!!|)!!/       ",
"          @/)~'~~}']xjooiioiuir>'~vjoiooiioiuj4)'!5jjiiojjg!hjiiiujx)!!9oioij[!!!4jioiooiioj=!1jiuiioioj*!!,Aioojp!!!!!!!%      ",
"          :'}'~~'~,vjiiiioiiiiBC)0jiuiiiioiiiin')'njuiiiii(9oiiiiiit!)!/ioiiu9!!;iiiuiiiioijm!kjiioiuiijm!!qiiiiu>!|!|!|!/      ",
"         +[)'{~~~'0jioouioioiu1!4iioioouioioojx~)~riioouii/(iiiouojD!!!4joiiv)!,riioioouiojn|)hiuoiuioojl!!(jiiih)!!!!!!!)#     ",
"         %,''~~{'[iooiiijjiii()frjiuoiiijiuiiiz>!8uooiiiio30joiioijk!)!mjiuj0!!Ejiiuoijjjjc'!>&ioixzoiij4!!kjoij0!!!!!)!)!_     ",
"         7''~~~,]vjiiiiiAycug)'mjoiiijjxhiioiouC!6jiiiiuiuqxiuoijojl!)!ciioj(!;jjoiiijtkrh~!!ejijicoiiii/!!cjuoje!!|)!!!!!^     ",
"        +['{~,,)-iuioijvq',/~~^ziouiiik9,mjioiu>)Diioizrjwpiiiouioj4!)~xjoii>|tiiouiig)!,,!|!cjuiu0ooiioq!'xiiiu^!!!!!|!|!~+    ",
"        #^'{~,,,vjiiiix>~]~~{'7joiiij=)~'>ziiiz>~wjiiiFhjhkjiiiioijs!!>uiiix)Cjioiij=!!!!!!!{zjiixmiioiu]!,Biijr'!!!)!!!!!!*    ",
"        a]~,,9~;ioiooip~,,],~fxiiuijc{~,~,xjojx~8uioujDxjtvjoiooioi/!!;juijc!0joiujt!!!)!!)!pjoojDmjuiiB~!/joiin!!|!!|!)!!!5    ",
"        *{~,,]~7jooijn~,],,,~(iiooiu8',,,~tjujt)gjoiiilrjhAiBBiioiuC!!_jioj_)xiioiuC!!!!|!!!:joij_Djioir'!ejuij=!!!|!!!!|!!6    ",
"        2~,,]],tjiiiu/,,],],,0iiiij0~,,,,~viijk)cjiiix4iiuiixwiiiiB>!!Djioj/3iuiijD!!!!!!!!~ziuiistjiojG)!djiii[!!!)!!!!!!!(    ",
"        d~,]],CAioujt9,,]],,]Fjoiiz/H],,,9xiji1,AiuijcsiiiujIrioiiA]))viiiB,ejioii8!!)!!)!!sjoiiAfxjiiiv)!cjiio]!!!!!)!!)!!(    ",
"        d~]f]]siioij_~]]]]]]>uioijc,,,],,^Biir,[jiiij_ejioio6uioiiA,!,riiiw)mjiojxb!!!|!|!!Djiijc,uioujv!'wjojw)!!!|!!|!|!!-    ",
"        :,9]>]eiiuio1J]]]]]{[ioiiil~]9,]~-joj0)Djuiii;=joiih[ioiiir'!^uiojc!cjuijy!!|!!!!!~riiujg]iiiijn!]ioojn)!!!!!!!!!!!_    ",
"        *f,>^]_ioiiz^>]K]>],_iiooi1,]],]~cjii/,xiiojr,DjuijD[iioojr~!pjiuj=!vjiojk!)!)!!!!;jiiii/piioijn!siiij5!!!!~))!!!)!2    ",
"        $^,]^]liiiizq]]>>>^~liiuii/,]]9~s&ijc'[&iiijc'cjiij-4iiuoir}!=ioij(!tjiujk!!!!!~)!DjioiuhBiiuoin!_joii71<Dvx,!!!|!)$    ",
"        #/,>>]eiioiie]>>,md~ljoiii4~]>,fviii1)mjiooj5~hjooo^_joiiiv')njiiu8!njoijt!!|!~v,'zioioijioojijn!0jioiojjjjA{!!)!!,.    ",
"        ._']>>soiuiix[f^djv]eiooiit],,>2jij0~fGiiuii/]xiijh'kjooiiv)'hioju]!kjooi&=)!q$j/[jiuiooiuiioij0!%iiuioiiujx'!!!!!1     ",
"        .:]]>>CxiioiiohrjiuCs&iiiiivlmxjiix>{[iiiiir,^Biij:!Djiiij$']ziijx}!1iiiiiixtujj7Djii&ijjioiuij7'riii&iiiiiv!!!|!!d     ",
"         #/,]^>mioioiiiiiij4>Aiouoiijjiuiup,~Djouojc'8iuii-)njiouiv)Cioujc'!~riouoiijioizuiooioamzioioj=]iiooiiouojc!!!!!~.     ",
"         +_~]>^1zjiuoiiiijD^]Djioiiuoiiij_H]>riioij_)(jiiu>~viiiijh)4jiijD!)!gjioiiuoijxtjuiiiv))uiuoij5sjoiiiijjjjD!!)!!6      ",
"         .%>,]>>5ijiiiiiu7>>>1uijoiiiii&l]],gioijii1~gjuiv~,xjjjjzD)mjjjj=!)))cjjoiijjv>tjooij7!^oijjjj=_jijjuwc7esf|!!!'@      ",
"          .<~]>]>_xijjua4K^^3>5iiioiijre]]>>vjiuzxn]'kjojk'>vak-;]''t&hk[~b'))}7.jjix_bCjjjizr1![jurnl;'c&G0(3'!!!!!!!!!_       ",
"          .$^~]>^^/-=_1^>^^^3^^lxii&r0C]>>]^m<6[C>9,~DjjjL',,~}''~'~p^'))))')))!][(C}!!lckp89)!!C6^b!!!!/>!!!!!!!)!!)!!].       ",
"           .d~~]>>^>>^^C^^C>^^>]C[-[^>>^>>3]]],,]]]]~2#tmf,,~,~~~'~})''~'''))'))!!!!!)!)!!!!!!!!!!!!!|!)!!!!!|!!!!|!!!!*        ",
"            +-',]>>^^>C^C^^^^^^^>>>>^]^>^>>>f>>>]]]]]f]~,,,,~,{,~~~~~)}'}''')b)')))))!)!)!!!!!!|!!!|!!!!|!!!!!!|!!!|!!-         ",
"            &@C',]>^^^C>C^C^CM^^C^^M^>^>^>^>^>]>>>]>],]]],],,,~{,~'~~'~'}'''''))'))))!)|)!)!)!!!)!!)!!!!!!|!)!!!)!!)!^&         ",
"             &$>'{,]>^^^C^^q^^C^q^^^^^^>^^>>>>]]>]]]]f],]],,,,,~,~~~~~''~'''')))))))))!!)!!!!!!!!!!!!)!!)!!!!!!!!!!!,r          ",
"              &c]',9]]>>^^CC>CC^C^CC^^^^^>^^>^>>>>>>]]]]],]],,,{,~{~~'~'~'''b'b)')))|!)|)!))!|!!)!!|!!|!|!|)!|!!)!!~%           ",
"               j*,b~,]]>>^^^^C^CC>C^C^^^^^^>>^>^>]>>>]]]9]],,,~,,'~~'~'~'''b'')'))))))!)!!|!!!!)!!!!!!!!!!!!!!!)!!~%            ",
"                &a9b~,,]]>]^C^qq^C^C^CC^^C>^^^^>>>f>]>,]]]]]],,,~,~,~~'}'~)''''))'))))!)!)!!)!!!!|!)!)!!!)!!)!!!!]%             ",
"                 j%>!'~,]]]>^^^^^CCC^^^^C^^^^>^>>>>>]]]]]]9,],,{,,,~~~}'~~'''b')))))|)!|))!!|!|!!!!!!!!!|!!!!!!!^@              ",
"                  j#1)'~~,]>>>>^C^^^/CCC^^^^^>>^^>>>>>>>]]]],,,,,{~~{{~~~''}'))''))))))))!|)!!!!)!!!|)!)!!!)!!![&               ",
"                   j._b)'~',,]>>^^^>^^^^^^^^>^^>^>^]>>]]]]]],9,,,~,N~~~'}~''b'''')'!))|!!)!!!!!!|!)!!!!!!!!!!'7j                ",
"                    &j2>|)~~,,]>>>>^>^^CC^C^^^^^>3>3f>>>>]]]],]],,{,~{~'~'~''''')b)')))))!)!)!|)!!!|!|!|!!!!C#                  ",
"                      j#-')'',{,,]>>>>>>^^^^^^^>>>^>>>>]>]]],],,,,,,N~~}~'~''}')))'))))!)!)!!)!!!!)!!!!!!!~5&                   ",
"                       jj*C))'~~~,,,]>>>^>>^>>^^>^>>f>>]>]]]],]],,,~~,,~{~''''''b'))))))))!|)!!|!!!!!!|!)(@                     ",
"                         j&:^!!'~'~,,,]9]]>]>]>>>>>>>]>]]]]]],,]],,,,~{~~'~'~'''')bb'))!!!|!|!!)|!!|)!!>*j                      ",
"                           j+7>!!)'}'~,,9,]]]]],]]]]]f]]]]]],],,,,,,,,,~,~~~'~')'b)))))))!))!)!!!!!!!,5+                        ",
"                             j.2/'!)'''~~~~,{,]],]],]],]]],,,,,,,,,~,~~~~~'~''~'''')')!))|!!!!)!!)!!(@                          ",
"                               j&a-,!!)'b'~'~~~~,',,~,{,~,,,{,~~,',~~~~{'~~''~''}b'b)'))!)))!)!!!!'k&                           ",
"                                 jj+dC~!!))')''~'}'~~'~~~~~~}~~~~~'~~)~'~''''''~'''''!))))!|!!!|!'2                             ",
"                                    j&@7[,'!!)!)''''''''''''~'''}''~'''''b''}''}~~'~')b))!)!)|!!'2                              ",
"                                       jj+*_/~)!!!!|)'))'))'b)))b)))b'))'))b'')'~~''}'))))!|!!!!d                               ",
"                                          jj.+a5-^~'!!!!!!|)!))|))))!!)!)!!!!|)'~~,{}'')))))!!!6                                ",
"                                              jjj.+v2761^f]~~')))|)))bb'~]3/(_=/}',{'~'')))!!!C&                                ",
"                                                    jjjj.&+@$%a*aa*aa%$$#++&&&&*,,,,~{''))||!~#                                 ",
"                                                                             ..@6~,,{~''')!!!5                                  ",
"                                                                              ++a],,],~~b))!>&                                  ",
"                                                                               +#/,],,~'b)!)2                                   ",
"                                                                                @<{],,,'')!/j                                   ",
"                                                                                @*3,],~''|)*                                    ",
"                                                                                @$1~,,,''!^&                                    ",
"                                                                                 #<,],~')!d                                     ",
"                                                                                 @2]N,~'),+                                     ",
"                                                                                 +$/~~''!6                                      ",
"                                                                                  @-'~'')a                                      ",
"                                                                                  @d~)'!^.                                      ",
"                                                                                  +a,)'!_                                       ",
"                                                                                   @C)))*                                       ",
"                                                                                   .(!)]+                                       ",
"                                                                                   .<!![&                                       ",
"                                                                                    d)!5                                        ",
"                                                                                    *!)a                                        ",
"                                                                                    #'].                                        ",
"                                                                                    @~/&                                        ",
"                                                                                    .,6                                         ",
"                                                                                    &]7                                         ",
"                                                                                    &Ca                                         ",
"                                                                                     /@                                         ",
"                                                                                     (+                                         ",
"                                                                                     v&                                         ",
"                                                                                     u                                          ",
"                                                                                                                                ",
"                                                                                                                                ",
"                                                                                                                                ",
"                                                                                                                                ",
"                                                                                                                                ",
"                                                                                                                                ",
"                                                                                                                                ",
"                                                                                                                                ",
"                                                                                                                                ",
"                                                                                                                                "};
